<?xml version="1.0" encoding="utf-8"?>
<!-- Generator: Adobe Illustrator 16.0.0, SVG Export Plug-In . SVG Version: 6.00 Build 0)  -->
<!DOCTYPE svg PUBLIC "-//W3C//DTD SVG 1.1//EN" "http://www.w3.org/Graphics/SVG/1.1/DTD/svg11.dtd">
<svg version="1.1" xmlns="http://www.w3.org/2000/svg" xmlns:xlink="http://www.w3.org/1999/xlink" x="0px" y="0px" width="512px"
	 height="512px" viewBox="0 0 512 512" enable-background="new 0 0 512 512" xml:space="preserve">
<g id="Layer_2">
	<rect x="85.5" y="128.5" fill="#FFFFFF" width="267" height="255"/>
</g>
<g id="Capa_1">
	<g>
		<g id="backspace">
			<path fill="#D0CCCC" d="M42.667,448h320c14.934,0,25.6-6.4,34.133-19.2L512,256L396.8,83.2C388.267,72.533,377.6,64,362.666,64
				H42.667C19.2,64,0,83.2,0,106.666v298.668C0,428.8,19.2,448,42.667,448z M106.667,179.2l29.866-29.866l76.8,76.799l76.801-76.799
				L320,179.2L243.2,256l76.8,76.8l-29.866,29.866l-76.801-76.799l-76.8,76.8L106.667,332.8l76.8-76.8L106.667,179.2z"/>
		</g>
	</g>
</g>
</svg>
