<?xml version="1.0" encoding="utf-8"?>
<!-- Generator: Adobe Illustrator 16.0.0, SVG Export Plug-In . SVG Version: 6.00 Build 0)  -->
<!DOCTYPE svg PUBLIC "-//W3C//DTD SVG 1.1//EN" "http://www.w3.org/Graphics/SVG/1.1/DTD/svg11.dtd">
<svg version="1.1" id="Layer_1" xmlns="http://www.w3.org/2000/svg" xmlns:xlink="http://www.w3.org/1999/xlink" x="0px" y="0px"
	 width="182px" height="420px" viewBox="0 0 182 420" enable-background="new 0 0 182 420" xml:space="preserve">
<g>
	<rect y="95" fill="#C8C8C8" width="182" height="325"/>
</g>
<g>
	<rect y="95" fill="#DFDFDE" width="89.642" height="325"/>
</g>
<g>
	<rect x="21.731" y="95" fill="#E9E9E9" width="141.254" height="281.836"/>
</g>
<path fill="#CCCCCC" d="M134,364.352c0,3.029-2.687,5.484-6,5.484l0,0c-3.313,0-6-2.455-6-5.484V54.484c0-3.028,2.687-5.484,6-5.484
	l0,0c3.313,0,6,2.456,6,5.484V364.352z"/>
<path fill="#CCCCCC" d="M133.299,49.096c1.076,0.46,0.895,3.303-0.408,6.351l0,0c-1.301,3.047-3.229,5.145-4.307,4.686
	L18.447,13.099c-1.076-0.459-0.894-3.303,0.407-6.35l0,0c1.301-3.047,3.229-5.145,4.306-4.686L133.299,49.096z"/>
</svg>
