<?xml version="1.0" encoding="utf-8"?>
<!-- Generator: Adobe Illustrator 16.0.0, SVG Export Plug-In . SVG Version: 6.00 Build 0)  -->
<!DOCTYPE svg PUBLIC "-//W3C//DTD SVG 1.1//EN" "http://www.w3.org/Graphics/SVG/1.1/DTD/svg11.dtd">
<svg version="1.1" id="Layer_1" xmlns="http://www.w3.org/2000/svg" xmlns:xlink="http://www.w3.org/1999/xlink" x="0px" y="0px"
	 width="147px" height="245px" viewBox="0 0 147 245" enable-background="new 0 0 147 245" xml:space="preserve">
<g>
	<g>
		<path fill="#5A8039" d="M59.636,129.552c0,0,7.148-47.689-38.146-60.804C21.488,68.746,14.334,115.238,59.636,129.552z"/>
	</g>
	<g>
		<path fill="#5A8039" d="M57.597,129.552c0,0-7.153-47.689,38.147-60.804C95.747,68.746,102.9,115.238,57.597,129.552z"/>
	</g>
	<g>
		<g>
			<path fill="#5A8039" d="M59.104,123.189c0,0-30.691-37.189,1.387-71.758C60.489,51.432,90.565,87.597,59.104,123.189z"/>
		</g>
		<g>
			<path fill="#EF453E" d="M145,165.335C145,209.332,105.896,245,57.658,245c-48.24,0-87.337-35.668-87.337-79.665
				c0-35.155,21.099-63.291,56.73-69.807c17.17-3.136,30.607,10.297,30.607,10.297S70.04,92.992,86.446,95.267
				C121,100.066,145,126.835,145,165.335z"/>
		</g>
	</g>
</g>
</svg>
